<?xml version="1.0" encoding="UTF-8"?>
<svg id="Layer_1" xmlns="http://www.w3.org/2000/svg" version="1.1" viewBox="0 0 179.9 179.9">
  <!-- Generator: Adobe Illustrator 29.2.1, SVG Export Plug-In . SVG Version: 2.1.0 Build 116)  -->
  <defs>
    <style>
      .st0 {
        fill: #fff;
      }
    </style>
  </defs>
  <g id="Layer_2">
    <g id="Layer_1-2">
      <path class="st0" d="M11.9,133.7c2.3,1.8,5.3,2.5,8.1,1.9,1.7-.2,3.4-.8,4.9-1.7s3-1.8,4.3-2.9c5.7-4.3,10.8-9.4,15.2-15,4-5.1,7.9-10.2,11.6-15.3,0-.2.2-.3.3-.5.3-.5.2-1.2-.3-1.5,0,0-.2,0-.4-.2-1.3-.3-2.5-.8-3.6-1.4-1.5-.8-2.8-2-3.7-3.5-.9-1.7-1.4-3.5-1.4-5.4s.3-4.1.9-6c.2-.6.8-.9,1.3-.7h.2c1.2.7,2.5,1.3,3.8,1.8s2.7.7,4.1.8c1.5,0,2.9,0,4.4-.3,1.4-.2,3.2-.4,5.2-.6.3,0,.7-.2.8-.5.5-.8,1-1.7,1.5-2.5.6-1,21.5-42.5,21.9-43.2s.8-1.4,1.4-2c.4-.5,1-.9,1.7-1,1.6-.2,3.2,0,4.7.5,1.3.4,2.5,1,3.6,1.8.2.2.3.4.4.6.9,4.9,1.6,9.8,2.4,14.7.8,5.3,2.4,10.4,4.8,15.2,0,.5.4.9.8.9s.5,0,.7-.4c3.7-5.2,7.9-10,12.5-14.4,4.8-4.7,10.2-8.7,16-12,3-1.7,6.2-3,9.4-3.9,3.3-.9,6.7-1.4,10.1-1.2.9,0,1.8,0,2.6.3C132.5-3.6,76.1-11.9,36.2,17.8.5,44.4-10.4,93.2,10.7,132.5c.4.4.8.8,1.2,1.1h0Z"/>
      <path class="st0" d="M86.9,82c2.3,0,4.6-.2,6.8-.3,2.7,0,5.3,0,8,0,.4,0,.8-.2,1-.6,0,0,2.4-4.2,2.8-4.7.2-.3.2-.7,0-1.1-1.4-2.7-2.5-5.6-3.5-8.5-.9-3-1.6-6-2.2-9.1,0-.6-.7-.9-1.3-.8-.3,0-.6.3-.7.6-1.4,3.2-2.9,6.3-4.4,9.3-2.2,4.1-4.4,8.2-6.7,12.2l-.7,1.3c-.3.5,0,1.2.5,1.5.2,0,.4,0,.5,0h-.1Z"/>
      <path class="st0" d="M91.8,179.9c49.7-1.1,89.1-42.2,88.1-91.9-.3-13.2-3.5-26.2-9.3-38-.6-1.3-1.5-2.4-2.5-3.3h0c-2.3-1.8-5.3-2.6-8.1-1.9-1.7.2-3.4.8-4.9,1.6-1.5.9-3,1.8-4.3,2.9-5.7,4.3-10.8,9.4-15.2,15-4.5,5.8-8.9,11.5-13,17.3l-.5.7c-.3.5-.3,1.1.2,1.5,1.4,1.3,2.9,2.4,4.4,3.5,1.5,1.1,3.1,2.1,4.8,3,.5.2.7.8.6,1.3-1,2.8-2.3,5.4-4.1,7.7-.3.4-1,.5-1.4.2-3.6-2.5-7.7-4.1-12-4.9-.4,0-.8,0-1.1.5-2.2,3.5-4.2,7.2-6.1,10.9-2,4-3.6,8.1-4.8,12.4-.3,1.3-.6,2.6-.8,3.8-.2.9-.2,1.9,0,2.9.3.7,1,1.3,1.8,1.3,1.5,0,3,0,4.5-.7,3.7-1.4,7-3.5,9.7-6.3,3.4-3.3,6.5-6.9,9.2-10.8,2.8-4,5.2-8.1,7.4-12.4,1.8-3.5,3.2-7.3,4.2-11.2.4-1.7.6-3.4.6-5.2v-2.9c0-.6.4-1.1,1-1.1s.4,0,.6.2c1.1.7,2,1.5,2.9,2.5,1.3,1.5,2.3,3.2,3,5s1.2,3.8,1.4,5.8c.2,1.9.2,3.9,0,5.8-.4,4.3-1.7,8.4-3.7,12.2-2,3.8-4.6,7.4-7.6,10.5-3.1,3.1-6.5,5.9-10.2,8.3s-7.5,4.4-11.6,6.1c-1.9.7-3.9,1.3-5.9,1.8s-4,.8-6.1.7c-2,0-3.9-.4-5.7-1.2-1.9-.8-3.5-2.2-4.7-3.9-1.3-1.8-2.2-3.8-2.6-6-.4-2.1-.5-4.3-.4-6.5s.5-4.5,1-6.7,1.1-4.3,1.7-6.2c.5-1.5,1-3,1.6-4.5.3-.9.7-1.8,1.1-2.7.2-.6,0-1.2-.6-1.4h-.6c-2.8.4-5.7.8-8.4,1.2-3,.5-4.9.9-7.6,1.3-.6,0-1.2.5-1.5,1-.8,1.4-1.6,2.7-2.4,4-1,1.6-2,3.2-3,4.8-.6,1-1.2,1.9-1.8,2.9-2.6,4-5.5,7.8-8.7,11.4-1.7,2-4.9,5.2-7.3,7.6-4,3.6-8.4,6.8-13.1,9.5-3,1.7-6.2,3-9.5,3.9s-6.7,1.3-10.1,1.1c-.7,0-1.5,0-2.2-.2,17.4,23,44.7,36.3,73.5,35.7h.1Z"/>
    </g>
  </g>
</svg>