<svg xmlns="http://www.w3.org/2000/svg" viewBox="0 0 179.87 179.87"><defs><style>.cls-1{fill:#fff;}</style></defs><g id="Layer_2" data-name="Layer 2"><g id="Layer_1-2" data-name="Layer 1"><path class="cls-1" d="M11.88,133.66A9.69,9.69,0,0,0,20,135.58a14,14,0,0,0,4.86-1.66,37.21,37.21,0,0,0,4.33-2.86,84.1,84.1,0,0,0,15.22-15q6.06-7.65,11.58-15.32c.11-.16.22-.31.32-.47a1.08,1.08,0,0,0-.66-1.66A15.35,15.35,0,0,1,52,97.22a9.2,9.2,0,0,1-3.68-3.53,11.71,11.71,0,0,1-1.44-5.45,18.84,18.84,0,0,1,.89-6,1.08,1.08,0,0,1,1.56-.63,25.86,25.86,0,0,0,3.78,1.8,13.42,13.42,0,0,0,4.07.8,26.33,26.33,0,0,0,4.4-.27c1.44-.2,3.19-.38,5.22-.55a1.11,1.11,0,0,0,.84-.51c.51-.83,1-1.67,1.48-2.52.57-1,21.53-42.45,21.92-43.2a9,9,0,0,1,1.38-2,2.85,2.85,0,0,1,1.7-1,11.46,11.46,0,0,1,4.66.46,10.12,10.12,0,0,1,3.58,1.81,1.06,1.06,0,0,1,.36.64q1.28,7.38,2.36,14.7A54,54,0,0,0,109.86,67a.86.86,0,0,0,1.56.51,108.33,108.33,0,0,1,12.48-14.4,79.42,79.42,0,0,1,16-12,42.55,42.55,0,0,1,9.45-3.92A31.2,31.2,0,0,1,159.47,36a21.86,21.86,0,0,1,2.64.26,89.95,89.95,0,0,0-151.4,96.27A13.79,13.79,0,0,0,11.88,133.66Z"/><path class="cls-1" d="M86.89,82q3.45-.19,6.83-.35a78.87,78.87,0,0,1,8,0,1,1,0,0,0,1-.56s2.45-4.2,2.78-4.73a1.11,1.11,0,0,0,0-1.06A63.15,63.15,0,0,1,102,66.85c-.89-3-1.64-6-2.25-9.08a1.07,1.07,0,0,0-2-.22q-2.07,4.76-4.45,9.3Q90.05,73,86.63,79.07l-.74,1.33A1.09,1.09,0,0,0,86.89,82Z"/><path class="cls-1" d="M91.76,179.86A90,90,0,0,0,170.54,50,10,10,0,0,0,168,46.73l0,0a9.68,9.68,0,0,0-8.14-1.93A14.22,14.22,0,0,0,155,46.44a39.47,39.47,0,0,0-4.33,2.86,84.76,84.76,0,0,0-15.22,15q-6.82,8.64-13,17.28l-.47.66a1.09,1.09,0,0,0,.16,1.46c1.43,1.26,2.89,2.43,4.38,3.53a36.76,36.76,0,0,0,4.78,3,1.11,1.11,0,0,1,.57,1.34,29.9,29.9,0,0,1-4.08,7.73,1.06,1.06,0,0,1-1.45.22,30.46,30.46,0,0,0-12-4.9,1.06,1.06,0,0,0-1.06.48Q110,100.39,107.17,106a70.74,70.74,0,0,0-4.79,12.43c-.35,1.33-.63,2.59-.85,3.78a5.57,5.57,0,0,0,.06,2.86,2.21,2.21,0,0,0,1.84,1.33,10.36,10.36,0,0,0,4.46-.66,27.24,27.24,0,0,0,9.71-6.32,68.2,68.2,0,0,0,9.19-10.76,98.1,98.1,0,0,0,7.35-12.43,50.38,50.38,0,0,0,4.2-11.17,26.79,26.79,0,0,0,.59-5.18c0-1.06,0-2,0-2.92a1.05,1.05,0,0,1,1.64-.91,12.8,12.8,0,0,1,2.85,2.5,18.59,18.59,0,0,1,3,5,21.22,21.22,0,0,1,1.44,5.78,29.48,29.48,0,0,1,.07,5.85,33.46,33.46,0,0,1-3.74,12.22,46.15,46.15,0,0,1-7.55,10.5,61.57,61.57,0,0,1-10.17,8.31,64.82,64.82,0,0,1-11.61,6.05A52.58,52.58,0,0,1,109,134.1a22.57,22.57,0,0,1-6.1.73,15.23,15.23,0,0,1-5.71-1.2,10.87,10.87,0,0,1-4.66-3.92,15,15,0,0,1-2.56-6,27.13,27.13,0,0,1-.39-6.51,39.11,39.11,0,0,1,1-6.65q.8-3.31,1.71-6.24c.52-1.51,1-3,1.57-4.46.32-.88.67-1.78,1.06-2.69a1.1,1.1,0,0,0-1.16-1.51q-4.26.57-8.43,1.21c-3,.48-4.94.92-7.6,1.32a2.12,2.12,0,0,0-1.49,1c-.8,1.37-1.62,2.72-2.45,4q-1.5,2.4-3,4.79c-.59,1-1.21,1.92-1.82,2.87a113.92,113.92,0,0,1-8.65,11.42c-1.73,2-4.87,5.19-7.26,7.58A78.3,78.3,0,0,1,40,139.3a42.05,42.05,0,0,1-9.45,3.93,31.13,31.13,0,0,1-10.1,1.12,22.17,22.17,0,0,1-2.22-.18A89.81,89.81,0,0,0,91.76,179.86Z"/></g></g></svg>