<?xml version="1.0" encoding="UTF-8"?>
<svg id="Layer_1" xmlns="http://www.w3.org/2000/svg" version="1.1" xmlns:xlink="http://www.w3.org/1999/xlink" viewBox="0 0 179 179">
  <!-- Generator: Adobe Illustrator 29.2.1, SVG Export Plug-In . SVG Version: 2.1.0 Build 116)  -->
  <defs>
    <style>
      .st0 {
        fill: url(#linear-gradient2);
      }

      .st1 {
        fill: url(#linear-gradient1);
      }

      .st2 {
        fill: url(#linear-gradient);
      }
    </style>
    <linearGradient id="linear-gradient" x1="0" y1="67.6" x2="161.3" y2="67.6" gradientUnits="userSpaceOnUse">
      <stop offset="0" stop-color="#172554"/>
      <stop offset="0" stop-color="#182962"/>
      <stop offset=".2" stop-color="#1a317e"/>
      <stop offset=".4" stop-color="#1b3793"/>
      <stop offset=".5" stop-color="#1d3ca3"/>
      <stop offset=".7" stop-color="#1d3fac"/>
      <stop offset="1" stop-color="#1e40af"/>
    </linearGradient>
    <linearGradient id="linear-gradient1" x1="85.4" y1="69.1" x2="105.1" y2="69.1" xlink:href="#linear-gradient"/>
    <linearGradient id="linear-gradient2" x1="18.1" y1="111.7" x2="179" y2="111.7" xlink:href="#linear-gradient"/>
  </defs>
  <g id="Layer_2">
    <g id="Layer_1-2">
      <path class="st2" d="M11.8,133c2.3,1.8,5.2,2.5,8.1,1.9,1.7-.2,3.3-.8,4.8-1.7,1.5-.8,2.9-1.8,4.3-2.8,5.7-4.3,10.8-9.3,15.1-14.9,4-5.1,7.9-10.2,11.5-15.2.1-.2.2-.3.3-.5.3-.5.2-1.2-.3-1.5-.1,0-.2-.1-.4-.2-1.3-.3-2.5-.8-3.6-1.4-1.5-.8-2.8-2-3.7-3.5-.9-1.7-1.4-3.5-1.4-5.4,0-2,.3-4,.9-6,.2-.6.8-.9,1.3-.7,0,0,.1,0,.2,0,1.2.7,2.5,1.3,3.8,1.8,1.3.5,2.7.7,4.1.8,1.5,0,2.9,0,4.4-.3,1.4-.2,3.2-.4,5.2-.5.3,0,.7-.2.8-.5.5-.8,1-1.7,1.5-2.5.6-1,21.4-42.2,21.8-43,.4-.7.8-1.4,1.4-2,.4-.5,1-.9,1.7-1,1.6-.2,3.1,0,4.6.5,1.3.4,2.5,1,3.6,1.8.2.2.3.4.4.6.8,4.9,1.6,9.8,2.3,14.6.8,5.3,2.4,10.4,4.8,15.2,0,.5.4.9.8.9.3,0,.5-.1.7-.4,3.7-5.1,7.9-9.9,12.4-14.3,4.8-4.6,10.1-8.6,15.9-11.9,3-1.7,6.1-3,9.4-3.9,3.3-.9,6.7-1.3,10.1-1.2.9,0,1.8.1,2.6.3C131.8-3.6,75.7-11.8,36.1,17.7.5,44.2-10.3,92.8,10.7,131.9c.4.4.8.8,1.2,1.1Z"/>
      <path class="st1" d="M86.5,81.6c2.3-.1,4.6-.2,6.8-.3,2.7-.1,5.3-.1,8,0,.4,0,.8-.2,1-.6,0,0,2.4-4.2,2.8-4.7.2-.3.2-.7,0-1.1-1.4-2.7-2.5-5.5-3.5-8.4-.9-3-1.6-6-2.2-9-.1-.6-.7-.9-1.3-.8-.3,0-.6.3-.7.6-1.4,3.2-2.8,6.2-4.4,9.3-2.2,4.1-4.4,8.1-6.6,12.2l-.7,1.3c-.3.5,0,1.2.5,1.5.2,0,.4.1.5.1Z"/>
      <path class="st0" d="M91.3,179c49.5-1,88.7-42,87.7-91.4-.3-13.1-3.4-26-9.3-37.8-.6-1.2-1.5-2.4-2.5-3.3h0c-2.3-1.8-5.2-2.5-8.1-1.9-1.7.2-3.3.8-4.8,1.6-1.5.9-2.9,1.8-4.3,2.8-5.7,4.3-10.7,9.3-15.1,14.9-4.5,5.7-8.8,11.5-12.9,17.2l-.5.7c-.3.5-.3,1.1.2,1.5,1.4,1.3,2.9,2.4,4.4,3.5,1.5,1.1,3.1,2.1,4.8,3,.5.2.7.8.6,1.3-1,2.7-2.3,5.3-4.1,7.7-.3.4-1,.5-1.4.2-3.6-2.5-7.7-4.1-11.9-4.9-.4,0-.8.1-1.1.5-2.2,3.5-4.2,7.1-6.1,10.8-2,4-3.6,8.1-4.8,12.4-.3,1.3-.6,2.6-.8,3.8-.2.9-.2,1.9,0,2.8.3.7,1,1.3,1.8,1.3,1.5.1,3-.1,4.4-.7,3.6-1.4,6.9-3.5,9.7-6.3,3.4-3.2,6.5-6.8,9.1-10.7,2.7-3.9,5.2-8.1,7.3-12.4,1.8-3.5,3.2-7.3,4.2-11.1.4-1.7.6-3.4.6-5.2v-2.9c0-.6.4-1.1,1-1.1.2,0,.4,0,.6.2,1.1.7,2,1.5,2.8,2.5,1.3,1.5,2.3,3.2,3,5,.7,1.8,1.2,3.8,1.4,5.8.2,1.9.2,3.9,0,5.8-.4,4.3-1.7,8.4-3.7,12.2-2,3.8-4.5,7.3-7.5,10.4-3.1,3.1-6.5,5.9-10.1,8.3-3.6,2.4-7.5,4.4-11.6,6-1.9.7-3.9,1.3-5.8,1.8-2,.5-4,.8-6.1.7-2,0-3.9-.4-5.7-1.2-1.9-.8-3.5-2.2-4.6-3.9-1.3-1.8-2.1-3.8-2.5-6-.4-2.1-.5-4.3-.4-6.5.1-2.2.5-4.4,1-6.6.5-2.2,1.1-4.3,1.7-6.2.5-1.5,1-3,1.6-4.4.3-.9.7-1.8,1.1-2.7.2-.6,0-1.2-.6-1.4-.2,0-.4,0-.6,0-2.8.4-5.6.8-8.4,1.2-3,.5-4.9.9-7.6,1.3-.6,0-1.2.5-1.5,1-.8,1.4-1.6,2.7-2.4,4-1,1.6-2,3.2-3,4.8-.6,1-1.2,1.9-1.8,2.9-2.6,4-5.5,7.8-8.6,11.4-1.7,2-4.8,5.2-7.2,7.5-4,3.6-8.4,6.7-13,9.4-3,1.7-6.1,3-9.4,3.9-3.3.9-6.7,1.3-10.1,1.1-.7,0-1.5,0-2.2-.2,17.3,22.9,44.5,36.1,73.2,35.5Z"/>
    </g>
  </g>
</svg>